<?xml version="1.0" standalone="no"?>
<!DOCTYPE svg PUBLIC "-//W3C//DTD SVG 20010904//EN"
 "http://www.w3.org/TR/2001/REC-SVG-20010904/DTD/svg10.dtd">
<svg version="1.0" xmlns="http://www.w3.org/2000/svg"
 width="1024.000000pt" height="1024.000000pt" viewBox="0 0 1024.000000 1024.000000"
 preserveAspectRatio="xMidYMid meet">

<g transform="translate(0.000000,1024.000000) scale(0.100000,-0.100000)"
fill="#000000" stroke="none">
<path d="M0 5120 l0 -5120 5120 0 5120 0 0 5120 0 5120 -5120 0 -5120 0 0
-5120z m5962 2997 c122 -60 198 -158 218 -283 6 -36 9 -502 8 -1189 l-3 -1130
-5 1100 c-4 948 -7 1070 -15 720 -3 -106 -3 -109 -20 -95 -22 18 -33 -36 -11
-58 15 -15 16 -15 16 1 0 9 -4 17 -10 17 -5 0 -10 8 -9 18 0 10 3 12 6 4 2 -6
9 -10 14 -6 5 3 9 -12 9 -32 0 -36 -1 -37 -19 -20 -11 10 -25 15 -31 11 -9 -5
-10 -1 -6 12 5 16 0 23 -24 33 -16 7 -27 17 -23 23 3 6 1 7 -6 3 -9 -6 -9 -11
0 -22 6 -8 9 -18 5 -21 -4 -4 -11 -1 -16 7 -8 13 -12 12 -24 -5 -9 -11 -16
-24 -16 -28 0 -5 -5 -5 -11 -1 -8 4 -7 9 2 15 10 6 5 8 -13 7 -16 -1 -27 -7
-27 -13 3 -28 -2 -46 -12 -40 -6 4 -16 0 -22 -9 -10 -14 -12 -13 -14 10 -1 19
1 23 8 13 5 -9 9 -10 9 -2 0 6 8 14 18 16 9 3 2 5 -17 6 -33 1 -34 1 -16 21
10 11 13 20 7 20 -6 0 -20 -18 -31 -40 -10 -22 -15 -40 -10 -40 4 0 6 -7 2
-17 -5 -14 -7 -13 -14 5 -9 25 -39 20 -40 -7 0 -9 -6 -4 -14 14 -12 24 -14 26
-16 10 -1 -11 -1 -27 0 -35 1 -11 0 -12 -6 -3 -6 8 -14 9 -23 3 -21 -14 -27
-12 -27 6 0 9 11 21 24 27 13 5 23 15 23 22 0 16 28 15 34 -2 6 -15 26 -18 26
-2 0 5 -4 8 -9 5 -5 -3 -11 1 -14 9 -4 8 -15 12 -27 10 -11 -2 -20 1 -20 8 0
8 -3 8 -9 -2 -7 -11 -14 -10 -37 5 -21 14 -26 15 -19 4 5 -8 10 -18 10 -22 0
-3 4 -10 9 -15 5 -4 6 -3 3 3 -5 8 2 11 18 10 14 0 25 -4 25 -7 0 -7 -29 -22
-45 -24 -5 0 -16 -4 -23 -9 -11 -6 -10 -12 3 -26 16 -18 16 -18 -4 -13 -15 4
-21 1 -21 -11 0 -19 -16 -21 -26 -4 -4 7 -3 8 4 4 8 -5 12 1 12 16 -1 20 -4
18 -23 -14 -25 -43 -53 -60 -44 -28 3 11 1 23 -4 26 -5 3 -9 -3 -10 -13 0 -16
-1 -16 -8 2 -11 26 9 39 25 17 14 -20 29 -10 20 13 -3 9 -11 13 -17 9 -8 -4
-9 1 -5 17 7 23 6 23 -5 4 -19 -31 -32 -35 -59 -19 -24 15 -24 14 2 -10 16
-14 23 -28 18 -31 -6 -4 -8 -11 -5 -16 4 -5 2 -9 -3 -9 -6 0 -12 7 -16 15 -3
8 -11 15 -18 15 -9 0 -9 -3 2 -10 8 -5 11 -12 7 -16 -3 -4 -13 -1 -22 6 -13
11 -14 10 -10 -3 4 -8 1 -18 -6 -23 -7 -4 -10 -3 -6 3 8 14 -26 23 -44 13 -8
-5 -29 -10 -47 -13 -25 -4 -38 0 -53 16 -14 15 -8 -2 17 -55 28 -57 42 -75 55
-73 13 3 16 -1 12 -12 -5 -12 -7 -12 -14 -1 -13 19 -11 10 11 -75 16 -64 28
-87 72 -139 73 -86 139 -187 192 -294 43 -87 92 -221 84 -229 -2 -3 -15 28
-27 68 -46 141 -135 298 -253 443 -52 63 -68 91 -77 133 -28 130 -101 259
-217 381 -62 65 -74 83 -89 140 -63 228 -232 480 -438 652 -101 83 -124 78
-262 -58 -205 -203 -329 -402 -382 -612 -14 -57 -27 -78 -88 -149 -40 -46 -91
-118 -115 -159 -44 -77 -90 -191 -90 -223 0 -9 -14 -30 -31 -47 -91 -86 -207
-277 -264 -434 -40 -110 -95 -301 -95 -328 0 -38 27 -78 62 -92 18 -8 35 -15
37 -16 2 -2 -24 -31 -58 -64 -71 -70 -139 -170 -169 -250 -12 -30 -21 -49 -21
-43 -3 49 81 191 164 281 l66 71 -30 16 c-34 17 -61 61 -61 98 0 37 77 291
117 387 19 47 35 93 36 102 1 9 4 15 7 13 3 -2 18 20 33 48 15 29 21 44 14 35
-8 -10 -18 -18 -22 -18 -4 0 -2 7 5 15 12 15 11 16 -10 19 -6 0 -15 8 -20 16
-13 21 -12 3 1 -21 10 -19 9 -20 -11 -9 -12 6 -24 9 -28 6 -3 -3 -1 -6 5 -6 6
0 9 -9 6 -19 -5 -19 -33 -19 -33 1 0 5 5 6 12 2 7 -4 8 -3 4 4 -10 16 -38 2
-32 -15 3 -8 6 -19 6 -24 0 -6 6 -7 13 -3 7 4 9 3 4 -2 -5 -5 -12 -9 -15 -9
-4 0 -13 -4 -20 -9 -8 -5 -18 -4 -25 3 -9 9 -7 10 7 5 16 -6 18 -4 13 10 -4 9
-3 15 2 11 6 -3 8 7 6 22 -2 16 -4 31 -4 36 -2 18 -17 4 -17 -15 1 -18 -5 -23
-23 -23 -14 0 -26 -6 -29 -13 -2 -6 -21 -15 -43 -18 -29 -5 -37 -10 -29 -19 7
-8 4 -11 -13 -11 -16 1 -21 -4 -19 -19 2 -16 1 -17 -7 -5 -6 8 -11 11 -11 6 0
-5 -7 -3 -16 5 -14 11 -15 9 -11 -22 2 -19 2 -26 0 -17 -3 11 -10 15 -20 11
-12 -5 -14 -3 -8 7 5 8 4 11 -2 7 -6 -4 -16 -1 -22 7 -9 11 -6 12 16 8 16 -2
24 -1 20 4 -4 4 -21 9 -38 10 -23 2 -29 -1 -25 -12 3 -8 9 -21 12 -29 3 -8 1
-15 -6 -15 -6 0 -8 5 -4 12 4 6 3 8 -4 4 -6 -3 -9 -19 -6 -34 l5 -27 -20 28
c-19 29 -18 72 2 60 6 -3 7 -1 3 5 -11 18 -26 14 -26 -7 0 -16 -6 -18 -34 -14
-19 2 -37 0 -40 -5 -4 -6 3 -8 15 -5 19 5 20 4 8 -15 -10 -16 -15 -18 -26 -7
-7 8 -13 18 -13 24 0 6 -4 11 -10 11 -5 0 -7 -8 -4 -17 5 -15 3 -15 -10 2 -9
11 -14 25 -12 31 3 7 -3 10 -15 7 -10 -3 -19 -10 -19 -15 0 -5 4 -7 9 -3 5 3
12 1 15 -4 11 -17 -12 -22 -27 -6 -9 8 -21 15 -28 15 -24 0 16 -31 42 -33 13
-1 30 -7 38 -14 13 -14 8 -14 -62 0 -7 1 -15 7 -19 12 -5 6 -8 4 -8 -5 0 -13
-2 -13 -9 -1 -8 12 -12 12 -25 2 -22 -18 -39 -5 -26 20 6 10 7 19 3 18 -29 -5
-31 5 -32 167 0 91 -2 169 -6 172 -3 3 -4 -292 -3 -656 l3 -661 23 -23 c21
-22 31 -23 202 -26 l180 -3 6 31 c4 17 9 29 11 26 3 -2 2 -19 -2 -36 l-7 -31
-184 3 -184 3 -27 28 -28 27 -3 1217 c-3 1356 -6 1285 65 1364 39 43 79 68
128 80 17 4 685 6 1486 6 l1455 -2 76 -38z m-1234 -364 c36 -40 81 -95 100
-121 33 -47 135 -242 129 -248 -1 -2 -33 8 -70 21 -37 14 -76 25 -86 25 -12 0
-37 29 -72 83 -30 45 -78 108 -108 140 l-55 58 -39 -38 c-150 -147 -262 -383
-285 -604 l-7 -71 -72 -28 -73 -28 0 70 c0 38 9 115 20 170 49 238 172 452
377 653 l76 74 49 -41 c27 -22 79 -74 116 -115z m2340 -196 c64 -25 129 -73
169 -125 19 -26 122 -181 228 -345 106 -164 205 -312 221 -328 16 -16 76 -60
134 -96 198 -126 229 -154 281 -253 l24 -45 1 -390 0 -390 -5 390 c-6 387 -6
390 -30 435 -45 84 -75 112 -231 215 -85 57 -171 120 -191 141 -19 22 -69 91
-109 154 -197 307 -341 518 -371 546 -44 40 -94 69 -144 83 -58 17 -330 27
-321 12 4 -6 33 -11 67 -11 38 0 58 -4 54 -10 -4 -6 -11 -7 -17 -4 -7 4 -8 2
-4 -5 4 -6 12 -8 18 -5 6 4 14 0 20 -7 7 -12 9 -11 7 1 -1 8 -1 22 0 30 1 12
4 11 12 -3 8 -13 20 -18 44 -15 19 1 37 -1 41 -5 12 -12 13 -37 2 -37 -6 0 -8
6 -5 13 4 10 -6 14 -37 15 -50 2 -88 -27 -68 -51 9 -10 8 -14 -3 -14 -8 0 -12
4 -9 9 3 4 0 8 -7 8 -8 0 -6 7 5 19 17 19 17 20 -14 19 -20 -1 -27 -4 -18 -9
11 -7 11 -12 0 -29 -7 -11 -10 -25 -7 -30 3 -5 1 -11 -5 -15 -5 -3 -11 -16
-11 -28 -1 -17 -2 -18 -6 -4 -2 9 -9 17 -14 17 -6 0 -8 -4 -5 -9 3 -5 -2 -15
-12 -22 -14 -11 -15 -11 -5 0 9 11 8 19 -4 38 -9 13 -13 26 -9 30 3 3 6 2 6
-4 0 -5 14 -10 31 -10 27 0 29 2 15 12 -8 7 -15 14 -13 16 1 2 -3 -1 -9 -8 -6
-7 -14 -10 -18 -6 -3 4 -16 8 -27 10 -19 3 -19 2 -4 -13 13 -14 14 -19 3 -25
-7 -5 -19 -9 -27 -9 -10 0 -11 3 -2 14 9 11 9 16 0 22 -8 4 -9 3 -5 -5 4 -6 0
-14 -10 -18 -10 -4 -19 -2 -22 5 -2 7 -11 12 -20 12 -13 0 -14 -2 -3 -9 9 -6
10 -11 2 -15 -6 -4 -11 -14 -11 -22 0 -8 5 -12 10 -9 6 4 7 12 3 18 -4 8 -1 7
9 -1 10 -8 19 -9 22 -3 9 14 45 1 40 -14 -3 -7 -17 -11 -34 -9 -17 2 -36 -3
-45 -12 -12 -13 -15 -13 -15 -1 0 20 -22 17 -45 -6 -11 -11 -15 -17 -9 -14 7
4 9 -2 6 -18 l-4 -24 -19 22 -18 22 11 -31 c15 -41 5 -64 -26 -62 -13 1 -22 6
-20 10 3 4 -7 9 -23 9 -18 1 -21 3 -10 6 15 4 16 7 5 21 -7 9 -8 13 -2 9 7 -4
15 0 18 9 4 9 13 14 22 10 8 -3 12 -2 9 3 -3 6 -14 9 -25 8 -10 -1 -16 -5 -14
-9 3 -5 -8 -11 -25 -14 -17 -4 -28 -10 -25 -15 3 -5 11 -7 17 -3 7 3 1 -3 -12
-14 -14 -11 -20 -22 -13 -26 6 -3 13 0 15 6 3 7 6 3 6 -9 1 -12 4 -30 7 -40 5
-15 4 -16 -5 -3 -10 13 -12 13 -22 0 -9 -13 -10 -13 -6 2 4 10 -1 19 -11 23
-9 3 -12 9 -7 13 17 12 18 42 0 36 -8 -3 -13 -9 -11 -13 2 -3 -2 -12 -10 -19
-12 -11 -14 -5 -16 35 -7 161 -14 -286 -16 -1001 -1 -457 -5 -832 -7 -835 -3
-2 -5 476 -5 1063 l0 1067 353 -3 c299 -3 358 -6 395 -21z m-135 -14 c-7 -2
-21 -2 -30 0 -10 3 -4 5 12 5 17 0 24 -2 18 -5z m7 -57 c0 -2 -7 -7 -16 -10
-8 -3 -12 -2 -9 4 6 10 25 14 25 6z m-2225 -121 c93 -20 235 -92 315 -160 36
-31 67 -61 69 -68 3 -8 -3 -7 -15 3 -18 14 -18 14 -5 -2 7 -10 17 -16 21 -13
15 9 94 -95 139 -182 11 -23 21 -45 21 -48 0 -3 -26 9 -57 26 -57 31 -155 118
-120 106 25 -9 21 -4 -15 23 -31 22 -32 22 -14 2 11 -12 16 -22 12 -22 -14 0
-85 63 -81 71 3 4 0 11 -6 15 -8 4 -9 3 -5 -4 11 -18 0 -15 -58 18 -152 86
-360 119 -535 84 l-32 -7 20 51 c11 28 27 67 35 87 l15 35 113 0 c62 0 144 -7
183 -15z m1953 -16 c-20 -13 -38 -11 -32 5 3 8 13 12 25 9 16 -5 18 -8 7 -14z
m147 0 c-4 -5 -34 -9 -68 -8 -43 1 -54 3 -37 8 14 4 37 6 52 4 15 -1 30 2 33
7 4 6 11 8 16 4 5 -3 7 -10 4 -15z m192 -47 c24 -12 56 -37 73 -55 41 -43 300
-448 299 -467 0 -10 -3 -8 -9 5 -5 11 -71 117 -147 235 -188 292 -200 300
-455 300 -143 0 -147 -1 -177 -26 l-31 -26 0 -262 c0 -251 1 -263 21 -284 l20
-22 377 2 376 3 13 25 c7 14 13 19 13 11 0 -8 -7 -23 -17 -33 -15 -17 -41 -18
-394 -18 l-378 0 -20 26 c-20 26 -21 39 -21 294 l0 268 32 27 31 27 176 -4
c160 -3 180 -5 218 -26z m-4473 -26 c45 -19 66 -52 66 -102 0 -34 -6 -49 -30
-73 -40 -40 -70 -43 -335 -39 -210 3 -221 4 -252 26 -66 47 -62 139 9 182 31
18 50 20 271 20 181 0 246 -3 271 -14z m3954 -54 c7 7 12 9 12 6 0 -3 -6 -11
-13 -17 -11 -8 -18 -6 -33 12 -19 22 -19 22 2 5 16 -14 23 -15 32 -6z m-120
-12 c-14 -22 -24 -19 -15 5 4 8 11 15 17 15 6 0 6 -7 -2 -20z m-323 -30 c-28
-12 -37 -12 -30 0 3 6 16 10 28 9 21 0 21 -1 2 -9z m-31 -29 c4 -5 -3 -7 -14
-4 -11 3 -20 1 -20 -5 0 -5 -8 -13 -17 -16 -15 -6 -15 -4 2 14 19 21 40 26 49
11z m97 -24 c-6 -8 -7 -18 -3 -22 4 -5 1 -5 -6 -1 -10 6 -10 11 -1 22 6 8 14
14 16 14 3 0 0 -6 -6 -13z m45 1 c4 -7 4 -10 -1 -6 -4 4 -15 2 -24 -5 -14 -11
-14 -10 -2 6 16 20 18 21 27 5z m-2145 -193 c1 -22 -8 -71 -19 -108 -50 -159
-51 -335 -3 -472 20 -57 117 -196 150 -214 22 -13 -26 -24 -108 -25 l-65 -1
-42 60 c-24 33 -58 98 -76 145 -30 81 -32 91 -31 215 1 203 36 324 136 473
l42 62 7 -47 c4 -27 8 -66 9 -88z m1649 115 c0 -5 -5 -10 -11 -10 -5 0 -7 5
-4 10 3 6 8 10 11 10 2 0 4 -4 4 -10z m-672 -74 l53 -41 -6 -65 c-21 -202
-121 -440 -244 -579 l-31 -35 -57 40 c-31 21 -58 44 -60 50 -2 6 14 32 35 58
127 153 206 360 214 557 3 89 1 88 96 15z m549 49 c0 -8 -4 -15 -9 -15 -10 0
-11 14 -1 23 9 10 10 9 10 -8z m-48 -8 c-2 -2 -11 -8 -20 -15 -12 -9 -16 -9
-16 1 0 7 9 14 20 14 11 1 18 1 16 0z m-87 -25 c3 -11 0 -19 -8 -19 -7 0 -11
4 -8 9 3 4 0 8 -6 8 -6 0 -8 5 -5 10 10 16 22 12 27 -8z m-639 -38 c53 -7 53
-5 36 -98 l-10 -61 -182 0 c-157 -1 -194 -4 -265 -23 -97 -27 -166 -56 -242
-105 -30 -20 -56 -34 -58 -33 -4 5 14 115 27 163 10 37 17 43 80 72 172 79
397 110 614 85z m543 -236 c81 -76 177 -202 231 -305 42 -79 105 -249 117
-313 3 -19 -11 17 -32 80 -22 63 -53 144 -69 180 -74 159 -227 344 -364 440
-57 40 -58 40 -63 18 -2 -13 -8 -44 -14 -70 l-9 -48 53 -41 c64 -49 170 -159
212 -222 62 -89 153 -297 152 -346 -1 -9 -13 22 -29 69 -69 211 -180 364 -373
516 l-28 21 15 78 c8 42 15 79 15 81 0 11 127 -83 186 -138z m-2783 41 c70
-19 103 -124 56 -182 -35 -46 -66 -48 -491 -45 l-398 3 -31 32 c-60 59 -37
162 42 190 45 16 767 18 822 2z m1840 -171 c56 -118 149 -242 239 -318 72 -60
191 -130 224 -130 18 -1 18 -2 -1 -16 -11 -9 -51 -31 -89 -50 l-69 -33 -37 19
c-63 32 -186 137 -239 204 -101 127 -219 342 -198 362 4 4 116 53 124 54 1 0
22 -42 46 -92z m-629 -139 l16 -67 -34 -73 c-40 -88 -80 -208 -72 -216 3 -3
47 -17 98 -30 137 -37 333 -43 448 -14 46 11 111 34 144 49 l61 29 62 -46 c34
-25 62 -49 62 -52 1 -9 -139 -75 -207 -98 -104 -34 -180 -45 -307 -44 -140 1
-231 17 -411 74 l-131 41 28 98 c47 160 100 283 173 403 46 77 38 83 70 -54z
m-379 53 c-3 -3 -17 -6 -31 -7 -22 -1 -23 1 -9 11 16 12 52 8 40 -4z m-10 -31
c3 -5 1 -12 -5 -16 -5 -3 -10 1 -10 9 0 18 6 21 15 7z m1958 -103 l28 -37 -30
-58 c-67 -134 -184 -252 -320 -321 -76 -40 -179 -78 -187 -70 -2 3 22 12 54
22 31 10 93 36 137 59 106 54 243 189 298 293 l37 71 -41 57 c-22 31 -44 56
-48 56 -5 0 -18 -23 -29 -51 -54 -129 -165 -258 -286 -334 -84 -52 -245 -109
-290 -102 -24 4 -47 -5 -105 -42 l-74 -46 99 -3 c55 -2 128 2 163 8 35 6 65 9
68 7 17 -18 -277 -36 -334 -21 -34 9 142 114 180 107 37 -7 157 31 251 80 136
70 251 199 321 358 l28 66 26 -31 c15 -17 39 -48 54 -68z m-2248 63 c-3 -5 -1
-12 5 -16 5 -3 10 -11 10 -18 0 -6 -7 -2 -15 10 -10 14 -21 20 -32 16 -11 -4
-14 -3 -9 5 4 7 16 12 27 12 11 0 18 -4 14 -9z m180 -1 c3 -5 1 -10 -4 -10 -6
0 -11 5 -11 10 0 6 2 10 4 10 3 0 8 -4 11 -10z m-364 -22 c8 1 26 -2 40 -8 22
-10 22 -10 2 -6 -13 2 -23 -1 -23 -7 0 -7 -5 -5 -10 3 -7 12 -10 12 -10 1 0
-7 -6 -11 -15 -7 -8 3 -19 -2 -24 -12 -9 -15 -10 -15 -11 -1 0 9 -8 15 -21 15
-12 -1 -24 6 -27 14 -4 12 -3 13 10 3 12 -10 18 -9 34 6 14 14 21 16 29 7 6
-6 17 -10 26 -8z m173 -9 c3 -3 -5 -5 -19 -5 -13 0 -22 3 -19 7 4 8 30 6 38
-2z m2733 -261 c-3 -8 -6 -5 -6 6 -1 11 2 17 5 13 3 -3 4 -12 1 -19z m21 -73
c0 -16 -2 -15 -8 5 -11 34 -11 60 0 35 5 -11 8 -29 8 -40z m-313 5 c-11 -5
-29 -8 -40 -8 -16 0 -15 2 5 8 34 11 60 11 35 0z m-72 -17 c-7 -2 -19 -2 -25
0 -7 3 -2 5 12 5 14 0 19 -2 13 -5z m254 -15 c-3 -8 -6 -5 -6 6 -1 11 2 17 5
13 3 -3 4 -12 1 -19z m-304 5 c-7 -2 -21 -2 -30 0 -10 3 -4 5 12 5 17 0 24 -2
18 -5z m-84 -10 c-27 -3 -53 -19 -104 -64 l-68 -60 91 3 c50 2 88 -1 83 -5 -4
-4 -49 -6 -99 -5 l-92 3 78 67 c66 58 82 68 112 66 l35 -1 -36 -4z m528 -30
c-3 -10 -5 -4 -5 12 0 17 2 24 5 18 2 -7 2 -21 0 -30z m-133 -2 c-12 -11 -114
-44 -120 -39 -2 3 23 13 56 23 33 10 60 23 60 28 0 6 3 7 7 4 4 -4 2 -11 -3
-16z m132 -56 c-6 -24 -58 -65 -81 -65 -5 1 7 10 28 21 27 14 39 28 44 50 3
16 8 27 11 25 2 -3 1 -17 -2 -31z m-269 9 c-3 -3 -12 -4 -19 -1 -8 3 -5 6 6 6
11 1 17 -2 13 -5z m-40 -10 c-3 -3 -12 -4 -19 -1 -8 3 -5 6 6 6 11 1 17 -2 13
-5z m-44 -11 c-7 -2 -19 -2 -25 0 -7 3 -2 5 12 5 14 0 19 -2 13 -5z m-50 -10
c-7 -2 -19 -2 -25 0 -7 3 -2 5 12 5 14 0 19 -2 13 -5z m-55 -10 c-10 -2 -26
-2 -35 0 -10 3 -2 5 17 5 19 0 27 -2 18 -5z m1770 -10 c-27 -2 -69 -2 -95 0
-27 2 -5 3 47 3 52 0 74 -1 48 -3z m-151 -9 c-3 -3 -12 -4 -19 -1 -8 3 -5 6 6
6 11 1 17 -2 13 -5z m240 0 c-3 -3 -12 -4 -19 -1 -8 3 -5 6 6 6 11 1 17 -2 13
-5z m-307 -19 c-46 -18 -64 -17 -25 0 17 8 37 14 45 14 8 0 -1 -7 -20 -14z
m-1235 -15 c-27 -10 -57 -18 -65 -18 -8 0 8 8 35 18 28 10 57 18 65 18 8 0 -7
-8 -35 -18z m1645 0 c8 -5 11 -10 5 -10 -5 0 -17 5 -25 10 -8 5 -10 10 -5 10
6 0 17 -5 25 -10z m60 -36 c0 -2 -9 0 -20 6 -11 6 -20 13 -20 16 0 2 9 0 20
-6 11 -6 20 -13 20 -16z m-1793 10 c-3 -3 -12 -4 -19 -1 -8 3 -5 6 6 6 11 1
17 -2 13 -5z m-40 -10 c-3 -3 -12 -4 -19 -1 -8 3 -5 6 6 6 11 1 17 -2 13 -5z
m-40 -10 c-3 -3 -12 -4 -19 -1 -8 3 -5 6 6 6 11 1 17 -2 13 -5z m1273 3 c0 -2
-15 -13 -32 -26 l-33 -22 28 25 c26 24 37 31 37 23z m-1323 -13 c-3 -3 -12 -4
-19 -1 -8 3 -5 6 6 6 11 1 17 -2 13 -5z m-437 -22 c3 -3 -16 -2 -42 1 -34 5
-63 1 -105 -14 -172 -60 -424 -65 -584 -10 -15 5 -40 6 -57 3 l-31 -7 39 -57
c42 -63 79 -153 86 -208 3 -19 -6 -1 -19 40 -25 84 -66 163 -103 203 l-24 27
25 6 c39 10 64 8 173 -15 170 -35 347 -25 492 28 51 18 134 20 150 3z m383 11
c-7 -2 -19 -2 -25 0 -7 3 -2 5 12 5 14 0 19 -2 13 -5z m2038 -10 c13 -16 12
-17 -3 -4 -10 7 -18 15 -18 17 0 8 8 3 21 -13z m-2093 0 c-10 -2 -26 -2 -35 0
-10 3 -2 5 17 5 19 0 27 -2 18 -5z m-125 -10 c-34 -2 -93 -2 -130 0 -37 2 -9
3 62 3 72 0 102 -1 68 -3z m-1365 -18 c35 -8 84 -27 109 -42 97 -56 184 -172
198 -263 4 -23 -1 -16 -13 22 -26 75 -52 116 -111 171 -96 90 -216 128 -338
108 -201 -35 -329 -173 -352 -381 l-10 -85 4 85 c8 155 95 289 229 351 105 49
181 58 284 34z m2842 2 c0 -2 -12 -14 -27 -28 l-28 -24 24 28 c23 25 31 32 31
24z m413 -4 c-13 -2 -33 -2 -45 0 -13 2 -3 4 22 4 25 0 35 -2 23 -4z m382 -13
c10 -11 16 -20 13 -20 -3 0 -13 9 -23 20 -10 11 -16 20 -13 20 3 0 13 -9 23
-20z m-525 -9 c-30 -9 -66 -23 -80 -30 -16 -9 -21 -9 -14 -2 14 16 104 50 129
50 11 0 -5 -8 -35 -18z m207 13 c-3 -3 -12 -4 -19 -1 -8 3 -5 6 6 6 11 1 17
-2 13 -5z m40 -10 c-3 -3 -12 -4 -19 -1 -8 3 -5 6 6 6 11 1 17 -2 13 -5z m63
-24 c21 -11 41 -24 45 -29 4 -8 -77 32 -94 46 -13 10 15 0 49 -17z m255 -20
c10 -11 16 -20 13 -20 -3 0 -13 9 -23 20 -10 11 -16 20 -13 20 3 0 13 -9 23
-20z m-885 6 c0 -2 -8 -10 -17 -17 -16 -13 -17 -12 -4 4 13 16 21 21 21 13z
m144 -68 c-22 -24 -47 -54 -57 -68 -17 -25 -17 -25 -6 -1 11 24 87 111 97 111
2 0 -13 -19 -34 -42z m591 2 c21 -22 37 -40 34 -40 -3 0 -23 18 -44 40 -21 22
-37 40 -34 40 3 0 23 -18 44 -40z m210 -31 c9 -17 15 -33 13 -35 -3 -2 -12 12
-21 31 -21 43 -13 47 8 4z m-3752 -78 c10 -10 6 -10 -16 -2 -98 37 -225 -28
-243 -125 -18 -95 19 -173 98 -213 24 -11 35 -21 26 -21 -26 0 -99 61 -119
100 -22 41 -25 117 -5 163 15 38 62 85 103 103 34 16 138 13 156 -5z m3260 2
c-7 -2 -21 -2 -30 0 -10 3 -4 5 12 5 17 0 24 -2 18 -5z m-3181 -71 c11 -18 18
-36 14 -39 -3 -4 -6 -1 -6 5 0 7 -17 31 -37 54 -26 28 -31 37 -15 27 13 -8 32
-29 44 -47z m2779 31 c-12 -20 -14 -14 -5 12 4 9 9 14 11 11 3 -2 0 -13 -6
-23z m-530 -16 l-24 -22 19 27 c10 14 21 24 23 22 3 -3 -6 -15 -18 -27z m1049
-2 c19 -19 32 -35 29 -35 -3 0 -20 16 -39 35 -19 19 -32 35 -29 35 3 0 20 -16
39 -35z m-533 -27 c-3 -8 -6 -5 -6 6 -1 11 2 17 5 13 3 -3 4 -12 1 -19z m-892
-1 c176 -1 -82 -3 -572 -5 -491 -1 -893 1 -893 6 0 6 627 6 1465 -1z m683 -4
c-26 -2 -71 -2 -100 0 -29 2 -8 3 47 3 55 0 79 -1 53 -3z m1370 0 c-32 -2 -86
-2 -120 0 -35 2 -9 3 57 3 66 0 94 -1 63 -3z m-1171 -50 c-3 -10 -5 -4 -5 12
0 17 2 24 5 18 2 -7 2 -21 0 -30z m-2500 -70 c-2 -21 -4 -6 -4 32 0 39 2 55 4
38 2 -18 2 -50 0 -70z m3320 65 c-3 -7 -5 -2 -5 12 0 14 2 19 5 13 2 -7 2 -19
0 -25z m-3550 -10 c-3 -7 -5 -2 -5 12 0 14 2 19 5 13 2 -7 2 -19 0 -25z m2950
-55 c-3 -10 -5 -2 -5 17 0 19 2 27 5 18 2 -10 2 -26 0 -35z m380 5 c-3 -7 -5
-2 -5 12 0 14 2 19 5 13 2 -7 2 -19 0 -25z m-3332 -28 c-12 -53 -93 -131 -137
-130 -7 0 5 9 27 19 51 23 92 71 101 117 3 19 9 33 11 30 3 -2 2 -19 -2 -36z
m3552 -22 c-3 -7 -5 -2 -5 12 0 14 2 19 5 13 2 -7 2 -19 0 -25z m-820 -10 c-3
-7 -5 -2 -5 12 0 14 2 19 5 13 2 -7 2 -19 0 -25z m-3309 -38 c0 -9 -3 -7 -8 5
-5 11 -8 29 -8 40 0 16 2 15 8 -5 4 -14 8 -32 8 -40z m3551 30 c11 -24 11 -24
-3 -6 -9 11 -16 24 -16 30 0 12 5 7 19 -24z m-2752 -12 c-3 -7 -5 -2 -5 12 0
14 2 19 5 13 2 -7 2 -19 0 -25z m-27 -77 c-28 -57 -33 -51 -7 8 12 27 23 45
25 41 2 -5 -6 -27 -18 -49z m2815 39 c10 -11 16 -20 13 -20 -3 0 -13 9 -23 20
-10 11 -16 20 -13 20 3 0 13 -9 23 -20z m-3497 -134 c15 -15 49 -43 77 -62 27
-19 46 -34 42 -34 -16 0 -94 59 -130 99 -20 22 -45 58 -57 80 -31 62 -23 63
11 1 16 -30 42 -68 57 -84z m3571 88 c14 -12 -19 -1 -35 12 -18 14 -18 14 6 3
14 -6 27 -13 29 -15z m-315 0 c3 -8 2 -12 -4 -9 -6 3 -10 10 -10 16 0 14 7 11
14 -7z m-2936 -1 c-10 -2 -26 -2 -35 0 -10 3 -2 5 17 5 19 0 27 -2 18 -5z
m3330 -10 c-10 -2 -28 -2 -40 0 -13 2 -5 4 17 4 22 1 32 -1 23 -4z m-2998 -37
c0 -2 -8 -10 -17 -17 -16 -13 -17 -12 -4 4 13 16 21 21 21 13z m-65 -72 c-38
-34 -105 -75 -122 -74 -4 1 12 12 37 25 25 13 61 37 80 54 19 17 37 30 40 30
3 0 -13 -16 -35 -35z m2755 1 c19 -19 32 -35 29 -35 -3 0 -20 16 -39 35 -19
19 -32 35 -29 35 3 0 20 -16 39 -35z m-3160 -79 c25 -8 36 -15 25 -15 -11 0
-33 6 -50 14 -39 18 -31 18 25 1z m168 -23 c-21 -2 -57 -2 -80 0 -24 2 -7 4
37 4 44 0 63 -2 43 -4z m3219 -9 c-3 -3 -12 -4 -19 -1 -8 3 -5 6 6 6 11 1 17
-2 13 -5z m-4772 -803 c58 -83 73 -117 29 -66 l-26 30 22 -33 c12 -18 25 -30
30 -27 5 3 37 -37 73 -87 35 -51 148 -214 252 -363 103 -148 190 -276 193
-285 5 -16 -40 47 -212 292 -57 81 -107 144 -111 140 -3 -4 -5 -2 -3 3 5 16
-63 116 -75 108 -5 -3 -7 -1 -4 4 7 12 -20 27 -40 24 -7 -1 -13 3 -13 9 0 5 5
9 11 8 6 -2 13 2 15 8 3 7 -15 10 -51 9 -37 -1 -55 2 -52 9 3 6 -9 12 -27 13
-17 0 -25 -1 -18 -4 6 -2 12 -9 12 -14 0 -6 -4 -7 -10 -4 -5 3 -10 1 -10 -4 0
-6 -12 -11 -26 -11 -14 0 -23 4 -19 10 3 6 4 10 1 10 -2 0 -12 3 -22 7 -13 5
-16 3 -11 -9 7 -19 -18 -57 -30 -45 -4 5 -8 14 -8 20 -1 7 -6 11 -13 9 -7 -1
-12 3 -12 9 0 6 7 8 18 4 11 -4 14 -3 7 4 -25 24 -39 16 -40 -23 0 -30 -4 -40
-18 -42 -18 -2 -18 -1 -2 16 19 21 14 34 -18 51 -22 12 -22 12 -4 -9 11 -11
16 -26 12 -31 -7 -12 -26 -15 -24 -3 3 19 -2 29 -16 29 -8 0 -12 -4 -9 -9 3
-4 -2 -8 -11 -8 -9 0 -14 -4 -11 -8 2 -4 0 -14 -5 -22 -8 -12 -9 -11 -7 5 2
16 -2 19 -22 17 -24 -2 -24 -2 -5 12 13 9 22 11 26 4 4 -7 9 -6 13 1 6 10 0
13 -20 10 -4 0 -11 5 -16 13 -8 10 -9 10 -5 -3 3 -9 -4 -21 -15 -28 -26 -16
-35 -6 -15 17 20 21 22 32 6 32 -5 0 -7 -4 -4 -10 3 -5 1 -10 -4 -10 -6 0 -11
7 -11 15 0 8 -3 15 -8 15 -4 0 -6 -18 -4 -40 3 -30 1 -39 -9 -36 -8 2 -29 7
-46 10 -27 4 -33 2 -34 -12 -1 -16 -2 -16 -6 1 -2 9 -10 15 -16 11 -7 -3 -1 4
13 16 23 20 23 20 3 10 l-23 -11 0 145 0 146 208 3 207 2 -212 3 -213 2 0
-785 0 -785 193 -3 192 -2 -197 -3 -198 -2 -2 796 c-2 438 -1 797 0 799 2 2
104 4 227 4 l224 0 56 -78z m983 -723 l2 -798 -208 0 c-204 0 -207 0 -221 23
-13 21 -13 22 6 5 17 -16 43 -18 216 -18 l197 0 0 787 c0 432 -2 784 -5 782
-2 -3 -5 -62 -6 -131 -1 -113 -3 -126 -18 -121 -9 4 -19 11 -23 17 -5 7 -8 6
-8 -4 -1 -12 -3 -11 -11 3 -5 9 -17 17 -24 17 -8 0 -15 8 -16 18 0 11 -2 12
-6 4 -6 -16 16 -44 30 -35 6 3 7 1 3 -5 -4 -6 -13 -9 -21 -5 -8 3 -15 0 -15
-6 0 -6 -4 -11 -10 -11 -5 0 -6 8 -3 18 7 16 6 16 -11 0 -18 -18 -42 -25 -32
-10 3 5 -4 16 -15 25 -10 9 -19 13 -19 7 0 -5 8 -13 18 -19 15 -8 14 -11 -12
-21 -16 -6 -33 -13 -37 -16 -5 -3 -9 2 -9 11 0 9 4 14 8 11 4 -2 14 -1 22 4
12 7 10 9 -5 8 -11 -1 -30 2 -42 6 -18 6 -22 4 -17 -8 3 -9 10 -13 15 -10 5 3
9 0 9 -5 0 -6 -9 -11 -20 -11 -13 0 -18 5 -14 15 4 9 0 15 -10 15 -9 0 -16 -4
-16 -10 0 -5 -9 -14 -20 -20 -20 -10 -20 -8 -20 124 l0 135 93 4 92 3 -97 2
-98 2 -3 -452 -2 -453 -3 460 -2 460 193 0 192 0 3 -797z m1792 620 l0 -178
-435 0 -435 0 0 -135 0 -135 390 0 390 0 -2 -172 -2 -173 -3 167 -3 168 -388
2 -387 3 0 140 0 140 428 3 427 2 0 165 0 165 -622 -2 c-571 -3 -585 -3 -169
-5 295 -2 459 -7 467 -14 8 -7 14 -7 19 1 4 6 61 10 151 10 138 0 145 -1 128
-17 -14 -14 -18 -15 -22 -4 -3 10 -9 7 -19 -10 -13 -21 -14 -22 -10 -3 3 13
-1 21 -10 21 -8 0 -12 -6 -9 -14 6 -14 -19 -14 -43 1 -10 6 -12 4 -7 -12 6
-17 3 -20 -16 -16 -13 2 -17 1 -10 -2 9 -4 5 -10 -13 -20 -34 -18 -44 -18 -21
-1 17 12 17 14 3 20 -9 3 -15 12 -13 19 1 7 1 10 -1 5 -3 -4 -10 -4 -15 -1 -7
4 -8 2 -4 -4 4 -7 2 -12 -4 -12 -6 0 -8 -5 -4 -12 5 -7 0 -9 -14 -6 -15 4 -19
2 -15 -8 3 -8 1 -14 -5 -14 -5 0 -12 7 -16 15 -3 8 -13 15 -21 15 -10 0 -13 5
-9 13 4 6 3 8 -1 4 -16 -14 -13 -36 4 -32 10 2 18 -3 18 -10 0 -15 -34 -12
-51 5 -18 18 -27 11 -24 -17 3 -28 2 -29 -49 -24 -13 1 -10 5 9 14 21 9 25 15
18 27 -9 13 -10 13 -11 0 0 -10 -3 -8 -9 5 -7 17 -9 17 -9 3 -1 -10 -4 -18 -8
-19 -5 0 -15 -2 -24 -4 -11 -2 -16 3 -14 14 2 9 4 18 4 21 1 3 6 -2 11 -10 5
-8 10 -10 10 -5 0 6 -5 17 -10 25 -6 10 -10 11 -10 3 0 -7 -9 -13 -20 -13 -11
0 -20 -5 -20 -11 0 -5 5 -7 12 -3 7 4 8 3 4 -4 -4 -6 -13 -9 -21 -5 -8 3 -15
0 -15 -6 0 -6 -5 -11 -11 -11 -6 0 -9 7 -5 15 3 8 1 15 -4 15 -5 0 -9 -17 -8
-37 1 -20 -4 -39 -10 -41 -6 -2 -9 -9 -6 -16 3 -8 -4 -16 -15 -19 -19 -5 -19
-3 -6 17 9 13 12 26 8 31 -5 4 -2 5 5 1 6 -4 12 -3 12 2 0 6 -7 12 -15 16 -10
4 -15 -1 -15 -15 0 -14 -5 -19 -14 -16 -10 4 -12 0 -9 -14 3 -11 0 -19 -6 -19
-7 0 -9 5 -6 10 3 6 -4 14 -17 19 -28 11 -48 -3 -29 -21 10 -11 11 -9 5 7 -7
18 -6 19 10 6 13 -11 14 -16 4 -22 -6 -4 -15 -6 -19 -3 -9 5 -21 -25 -14 -36
3 -5 1 -11 -4 -14 -10 -7 -8 34 3 52 3 6 -2 16 -13 21 -29 16 -31 14 -31 -19
0 -16 -4 -30 -9 -30 -16 0 -2 52 20 76 l23 24 -32 -15 c-17 -9 -37 -13 -44
-10 -7 4 -6 1 3 -7 9 -7 16 -22 16 -32 0 -19 -1 -18 -15 2 -8 12 -20 22 -26
22 -6 0 -4 -5 4 -10 12 -8 10 -10 -8 -10 -13 0 -21 -4 -17 -10 3 -5 12 -7 20
-4 8 3 18 -4 25 -18 10 -21 10 -21 -3 -5 -8 9 -17 17 -20 17 -4 0 -4 -8 -1
-17 5 -15 4 -16 -5 -3 -6 8 -16 15 -23 15 -7 1 -11 7 -10 15 2 8 0 12 -4 8
-12 -13 -32 11 -27 32 3 12 0 20 -6 20 -7 0 -10 4 -7 8 3 5 -1 9 -9 9 -13 0
-13 -3 1 -18 9 -10 13 -23 9 -28 -9 -16 -28 -13 -22 3 4 11 -1 13 -20 10 -15
-3 -30 0 -34 8 -4 7 -12 9 -16 4 -4 -5 -2 -11 4 -13 21 -8 -4 -42 -27 -38 -13
2 -20 -2 -20 -11 0 -8 -5 -12 -10 -9 -14 9 7 35 29 36 9 0 3 5 -14 10 -39 12
-62 4 -46 -15 8 -10 9 -16 1 -21 -9 -5 -15 15 -11 38 1 4 -6 18 -15 30 -13 18
-15 18 -10 3 5 -14 2 -17 -9 -12 -9 3 -13 2 -10 -4 3 -6 2 -10 -4 -10 -5 0
-12 5 -14 10 -3 6 -4 5 -3 -2 2 -7 12 -12 23 -11 12 1 19 -5 20 -17 2 -21 -12
-27 -22 -10 -3 6 -12 10 -18 10 -8 0 -8 -3 2 -9 9 -6 10 -11 2 -15 -6 -4 -8
-12 -5 -18 4 -6 2 -8 -4 -4 -6 3 -16 -2 -22 -11 -7 -13 -10 -14 -8 -3 2 8 -2
15 -7 15 -5 0 -9 -7 -8 -15 2 -10 0 -10 -3 -2 -3 6 -10 12 -15 12 -6 0 -7 -4
-4 -10 10 -17 -12 -11 -26 7 -12 14 -12 16 1 11 19 -7 53 10 45 22 -3 5 -18 4
-35 -2 l-30 -10 0 -684 0 -684 648 -3 647 -2 -652 -3 -653 -2 0 793 c0 437 2
796 5 799 3 3 291 5 640 4 l635 -1 0 -177z m1473 -24 c43 -108 76 -198 74
-200 -2 -2 -38 84 -81 191 l-78 195 -251 0 -252 0 -34 -88 c-142 -365 -314
-793 -317 -790 -2 2 45 128 105 278 59 151 138 352 174 445 l67 170 257 -2
258 -2 78 -197z m734 -591 c-1 -148 -2 -27 -2 267 0 294 1 415 2 268 2 -148 2
-388 0 -535z m941 780 c-10 -2 -28 -2 -40 0 -13 2 -5 4 17 4 22 1 32 -1 23 -4z
m59 -9 c-3 -3 -12 -4 -19 -1 -8 3 -5 6 6 6 11 1 17 -2 13 -5z m40 -10 c-3 -3
-12 -4 -19 -1 -8 3 -5 6 6 6 11 1 17 -2 13 -5z m-3366 -61 c13 -16 12 -17 -3
-4 -12 9 -18 10 -18 2 0 -6 -7 -11 -15 -11 -13 0 -14 3 -3 15 17 19 23 18 39
-2z m79 -24 c0 -5 -4 -9 -10 -9 -5 0 -10 7 -10 16 0 8 5 12 10 9 6 -3 10 -10
10 -16z m-330 -4 c7 -9 8 -15 2 -15 -5 0 -12 7 -16 15 -3 8 -4 15 -2 15 2 0 9
-7 16 -15z m100 0 c-7 -8 -17 -15 -22 -15 -6 0 -5 7 2 15 7 8 17 15 22 15 6 0
5 -7 -2 -15z m3700 -10 c13 -14 21 -25 18 -25 -2 0 -15 11 -28 25 -13 14 -21
25 -18 25 2 0 15 -11 28 -25z m-3935 -5 c4 -6 -7 -10 -27 -10 -25 0 -29 3 -18
10 19 13 37 13 45 0z m350 -9 c-3 -6 -11 -11 -16 -11 -5 0 -4 6 3 14 14 16 24
13 13 -3z m-322 -8 c-5 -12 -3 -14 7 -8 9 5 11 4 6 -3 -7 -12 1 -15 37 -15 10
0 15 -2 12 -5 -9 -9 -64 -9 -59 -1 2 4 0 10 -6 14 -5 3 -10 1 -10 -4 0 -6 -4
-11 -9 -11 -5 0 -4 11 2 25 13 27 30 35 20 8z m137 7 c0 -5 -5 -10 -11 -10 -5
0 -7 5 -4 10 3 6 8 10 11 10 2 0 4 -4 4 -10z m-215 -20 c3 -5 1 -10 -4 -10 -6
0 -11 5 -11 10 0 6 2 10 4 10 3 0 8 -4 11 -10z m-405 -17 c-1 -10 -26 -43 -33
-43 -3 0 0 11 6 25 11 23 27 34 27 18z m39 -22 c-8 -2 -7 -7 2 -13 11 -8 11
-9 -1 -5 -8 2 -14 10 -12 16 1 6 -2 11 -8 11 -5 0 -10 5 -10 10 0 6 8 5 20 -2
11 -7 15 -15 9 -17z m366 9 c3 -5 1 -10 -4 -10 -6 0 -11 5 -11 10 0 6 2 10 4
10 3 0 8 -4 11 -10z m4056 -7 c13 -16 12 -17 -3 -4 -10 7 -18 15 -18 17 0 8 8
3 21 -13z m-4158 -68 c-3 -9 -8 -14 -10 -11 -3 3 -2 9 2 15 9 16 15 13 8 -4z
m-1223 -15 c0 -5 -4 -10 -10 -10 -5 0 -10 5 -10 10 0 6 5 10 10 10 6 0 10 -4
10 -10z m25 0 c-3 -5 -1 -10 4 -10 6 0 11 6 12 13 0 9 2 9 6 -1 2 -6 9 -10 14
-6 5 3 9 0 9 -5 0 -6 -13 -11 -30 -11 -20 0 -30 5 -30 15 0 8 5 15 11 15 5 0
7 -4 4 -10z m-55 -4 c0 -2 -9 -6 -20 -9 -11 -3 -20 -1 -20 4 0 5 9 9 20 9 11
0 20 -2 20 -4z m1080 -6 c0 -5 -5 -10 -11 -10 -5 0 -7 5 -4 10 3 6 8 10 11 10
2 0 4 -4 4 -10z m37 -6 c-3 -3 -12 -4 -19 -1 -8 3 -5 6 6 6 11 1 17 -2 13 -5z
m-1942 -24 c10 -11 16 -20 13 -20 -3 0 -13 9 -23 20 -10 11 -16 20 -13 20 3 0
13 -9 23 -20z m-275 -20 c0 -5 -2 -10 -4 -10 -3 0 -8 5 -11 10 -3 6 -1 10 4
10 6 0 11 -4 11 -10z m-100 -15 c0 -8 -2 -15 -4 -15 -2 0 -6 7 -10 15 -3 8 -1
15 4 15 6 0 10 -7 10 -15z m5938 8 c-38 -2 -98 -2 -135 0 -38 2 -7 3 67 3 74
0 105 -1 68 -3z m180 0 c-16 -2 -40 -2 -55 0 -16 2 -3 4 27 4 30 0 43 -2 28
-4z m-391 -70 c-3 -10 -5 -4 -5 12 0 17 2 24 5 18 2 -7 2 -21 0 -30z m523 12
c13 -14 21 -25 18 -25 -2 0 -15 11 -28 25 -13 14 -21 25 -18 25 2 0 15 -11 28
-25z m-1556 -75 c3 -14 -3 -7 -13 15 -11 22 -20 45 -20 50 0 15 26 -37 33 -65z
m2013 48 c-3 -8 -6 -5 -6 6 -1 11 2 17 5 13 3 -3 4 -12 1 -19z m-2478 -27 c-6
-18 -13 -30 -15 -28 -2 2 1 18 7 36 6 18 13 30 15 28 2 -2 -1 -18 -7 -36z m66
-51 c14 -40 23 -75 21 -77 -2 -2 -14 26 -26 64 -13 37 -25 75 -28 83 -3 8 -2
12 1 9 4 -3 18 -39 32 -79z m-101 -44 c-9 -26 -18 -45 -20 -43 -2 2 3 25 12
51 9 26 18 45 20 43 2 -2 -3 -25 -12 -51z m526 9 c0 -5 -5 -3 -10 5 -5 8 -10
20 -10 25 0 6 5 3 10 -5 5 -8 10 -19 10 -25z m44 -115 c3 -14 -2 -7 -13 15
-10 22 -21 51 -25 65 -3 14 2 7 13 -15 10 -22 21 -51 25 -65z m-610 -4 c-9
-26 -18 -45 -20 -43 -2 2 3 25 12 51 9 26 18 45 20 43 2 -2 -3 -25 -12 -51z
m-3659 -326 c136 -195 253 -362 258 -370 10 -13 9 -13 -5 0 -19 19 -491 688
-508 721 -25 48 12 -3 255 -351z m-278 -122 c-1 -90 -3 -17 -3 162 0 179 2
252 3 163 2 -90 2 -236 0 -325z m4137 432 c5 -17 4 -20 -2 -10 -5 8 -13 26
-16 40 -5 17 -4 20 2 10 5 -8 13 -26 16 -40z m1916 17 c0 -2 -10 -12 -22 -23
l-23 -19 19 23 c18 21 26 27 26 19z m-1480 -62 c0 -5 -5 -3 -10 5 -5 8 -10 20
-10 25 0 6 5 3 10 -5 5 -8 10 -19 10 -25z m-671 -34 c-6 -18 -13 -30 -15 -28
-2 2 1 18 7 36 6 18 13 30 15 28 2 -2 -1 -18 -7 -36z m2038 23 c-3 -3 -12 -4
-19 -1 -8 3 -5 6 6 6 11 1 17 -2 13 -5z m-1753 -84 c5 -20 3 -19 -8 5 -7 17
-16 41 -20 55 -5 20 -3 19 8 -5 7 -16 16 -41 20 -55z m1609 73 c-51 -2 -136
-2 -190 0 -54 1 -12 3 92 3 105 0 149 -2 98 -3z m-1183 -78 c0 -5 -5 -3 -10 5
-5 8 -10 20 -10 25 0 6 5 3 10 -5 5 -8 10 -19 10 -25z m-751 -44 c-6 -18 -13
-30 -15 -28 -2 2 1 18 7 36 6 18 13 30 15 28 2 -2 -1 -18 -7 -36z m771 -6 c0
-5 -5 -3 -10 5 -5 8 -10 20 -10 25 0 6 5 3 10 -5 5 -8 10 -19 10 -25z m-1219
-52 c-12 -20 -14 -14 -5 12 4 9 9 14 11 11 3 -2 0 -13 -6 -23z m819 -18 c0 -5
-5 -3 -10 5 -5 8 -10 20 -10 25 0 6 5 3 10 -5 5 -8 10 -19 10 -25z m-2213
-227 c-1 -40 -3 -8 -3 72 0 80 2 112 3 73 2 -40 2 -106 0 -145z m2111 195
c-53 -2 -143 -2 -200 0 -57 1 -13 3 97 3 110 0 156 -2 103 -3z m-747 -30 c-12
-20 -14 -14 -5 12 4 9 9 14 11 11 3 -2 0 -13 -6 -23z m1319 -48 c0 -5 -5 -3
-10 5 -5 8 -10 20 -10 25 0 6 5 3 10 -5 5 -8 10 -19 10 -25z m-1339 -2 c-12
-20 -14 -14 -5 12 4 9 9 14 11 11 3 -2 0 -13 -6 -23z m1736 -85 c-3 -8 -6 -5
-6 6 -1 11 2 17 5 13 3 -3 4 -12 1 -19z m-1776 -15 c-12 -20 -14 -14 -5 12 4
9 9 14 11 11 3 -2 0 -13 -6 -23z m-20 -50 c-12 -20 -14 -14 -5 12 4 9 9 14 11
11 3 -2 0 -13 -6 -23z m-20 -50 c-12 -20 -14 -14 -5 12 4 9 9 14 11 11 3 -2 0
-13 -6 -23z m-20 -50 c-12 -20 -14 -14 -5 12 4 9 9 14 11 11 3 -2 0 -13 -6
-23z m912 20 c-83 -2 -223 -2 -310 0 -87 1 -18 3 152 3 171 0 242 -2 158 -3z
m-4176 -75 c-3 -7 -5 -2 -5 12 0 14 2 19 5 13 2 -7 2 -19 0 -25z m593 -78 c12
-16 19 -30 16 -30 -2 0 -14 14 -26 30 -12 17 -19 30 -16 30 2 0 14 -13 26 -30z
m50 -70 c12 -16 19 -30 16 -30 -2 0 -14 14 -26 30 -12 17 -19 30 -16 30 2 0
14 -13 26 -30z m2955 -70 c-3 -5 -27 -9 -53 -8 l-47 1 50 7 c28 4 51 8 53 8 2
1 0 -2 -3 -8z m-332 -7 c-24 -2 -62 -2 -85 0 -24 2 -5 4 42 4 47 0 66 -2 43
-4z m105 0 c-10 -2 -28 -2 -40 0 -13 2 -5 4 17 4 22 1 32 -1 23 -4z m85 0
c-13 -2 -33 -2 -45 0 -13 2 -3 4 22 4 25 0 35 -2 23 -4z"/>
<path d="M5121 7334 c0 -11 3 -14 6 -6 3 7 2 16 -1 19 -3 4 -6 -2 -5 -13z"/>
<path d="M5131 7294 c0 -11 3 -14 6 -6 3 7 2 16 -1 19 -3 4 -6 -2 -5 -13z"/>
<path d="M6007 7249 c7 -7 15 -10 18 -7 3 3 -2 9 -12 12 -14 6 -15 5 -6 -5z"/>
<path d="M5905 7240 c-3 -6 1 -7 9 -4 18 7 21 14 7 14 -6 0 -13 -4 -16 -10z"/>
<path d="M5945 7241 c-3 -5 -1 -12 5 -16 5 -3 10 1 10 9 0 18 -6 21 -15 7z"/>
<path d="M5847 7209 c7 -7 15 -10 18 -7 3 3 -2 9 -12 12 -14 6 -15 5 -6 -5z"/>
<path d="M5980 7216 c0 -2 7 -6 15 -10 8 -3 15 -1 15 4 0 6 -7 10 -15 10 -8 0
-15 -2 -15 -4z"/>
<path d="M5852 7170 c0 -14 2 -19 5 -12 2 6 2 18 0 25 -3 6 -5 1 -5 -13z"/>
<path d="M5670 7176 c0 -2 8 -10 18 -17 15 -13 16 -12 3 4 -13 16 -21 21 -21
13z"/>
<path d="M5538 7163 c7 -3 16 -2 19 1 4 3 -2 6 -13 5 -11 0 -14 -3 -6 -6z"/>
<path d="M5265 7151 c-3 -5 -2 -12 3 -15 5 -3 9 1 9 9 0 17 -3 19 -12 6z"/>
<path d="M5290 7113 c0 -6 8 -17 18 -24 16 -13 16 -13 2 6 -8 11 -16 22 -17
24 -2 2 -3 0 -3 -6z"/>
<path d="M5466 7101 c-15 -16 -15 -19 -1 -31 13 -11 14 -10 9 4 -4 10 0 18 10
22 9 3 16 10 16 15 0 15 -16 10 -34 -10z"/>
<path d="M5345 7081 c-3 -5 -2 -12 3 -15 5 -3 9 1 9 9 0 17 -3 19 -12 6z"/>
<path d="M2762 7040 c0 -14 2 -19 5 -12 2 6 2 18 0 25 -3 6 -5 1 -5 -13z"/>
<path d="M3760 6949 c-7 -11 -10 -23 -7 -25 2 -2 9 7 15 21 14 30 7 33 -8 4z"/>
<path d="M3726 6864 c-9 -26 -16 -52 -15 -58 0 -6 9 13 20 43 10 30 17 56 15
58 -2 2 -11 -17 -20 -43z"/>
<path d="M2761 6834 c0 -11 3 -14 6 -6 3 7 2 16 -1 19 -3 4 -6 -2 -5 -13z"/>
<path d="M3649 6723 c-13 -17 -13 -17 6 -3 11 8 22 16 24 17 2 2 0 3 -6 3 -6
0 -17 -8 -24 -17z"/>
<path d="M3626 6693 c-7 -8 -11 -9 -37 -12 -6 0 -9 -8 -5 -16 7 -18 -26 -37
-50 -28 -11 4 -15 3 -10 -5 3 -6 -1 -15 -10 -20 -15 -8 -14 -10 2 -17 35 -15
39 -12 81 46 39 54 49 72 29 52z m-84 -80 c-6 -2 -9 -10 -6 -15 4 -7 2 -8 -5
-4 -13 9 -5 26 12 25 9 0 8 -2 -1 -6z"/>
<path d="M3219 6536 c13 -16 -1 -32 -18 -21 -6 3 -8 -4 -6 -16 7 -33 12 -33
28 -2 15 29 13 53 -5 53 -7 0 -6 -5 1 -14z"/>
<path d="M3286 6533 c-6 -14 -5 -15 5 -6 7 7 10 15 7 18 -3 3 -9 -2 -12 -12z"/>
<path d="M2958 6483 c6 -2 18 -2 25 0 6 3 1 5 -13 5 -14 0 -19 -2 -12 -5z"/>
<path d="M2828 6453 c7 -3 16 -2 19 1 4 3 -2 6 -13 5 -11 0 -14 -3 -6 -6z"/>
<path d="M4121 7174 c0 -11 3 -14 6 -6 3 7 2 16 -1 19 -3 4 -6 -2 -5 -13z"/>
<path d="M4232 7150 c0 -14 2 -19 5 -12 2 6 2 18 0 25 -3 6 -5 1 -5 -13z"/>
<path d="M4112 7100 c0 -14 2 -19 5 -12 2 6 2 18 0 25 -3 6 -5 1 -5 -13z"/>
<path d="M4222 7080 c0 -19 2 -27 5 -17 2 9 2 25 0 35 -3 9 -5 1 -5 -18z"/>
<path d="M4102 7005 c0 -16 2 -22 5 -12 2 9 2 23 0 30 -3 6 -5 -1 -5 -18z"/>
<path d="M4205 7010 c-3 -5 -1 -10 4 -10 6 0 11 5 11 10 0 6 -2 10 -4 10 -3 0
-8 -4 -11 -10z"/>
<path d="M4120 6975 c-14 -8 -20 -14 -15 -14 6 0 21 6 35 14 14 8 21 14 15 14
-5 0 -21 -6 -35 -14z"/>
<path d="M6428 7563 c6 -2 18 -2 25 0 6 3 1 5 -13 5 -14 0 -19 -2 -12 -5z"/>
<path d="M6560 7558 c0 -4 7 -8 16 -8 9 0 12 -5 8 -12 -6 -10 -4 -10 7 -2 20
15 59 24 59 13 0 -5 -6 -9 -12 -9 -10 0 -9 -3 1 -9 7 -5 11 -13 7 -19 -6 -10
23 -26 32 -17 3 3 1 5 -5 5 -14 0 -23 34 -13 51 7 10 12 10 23 1 13 -11 27 -7
27 8 0 4 -34 7 -75 7 -41 0 -75 -4 -75 -9z"/>
<path d="M6678 7523 c7 -3 16 -2 19 1 4 3 -2 6 -13 5 -11 0 -14 -3 -6 -6z"/>
<path d="M6560 7481 c0 -5 7 -12 16 -15 14 -5 15 -4 4 9 -14 17 -20 19 -20 6z"/>
<path d="M6667 7473 c-4 -3 -7 -16 -6 -27 0 -19 1 -19 10 3 10 24 8 36 -4 24z"/>
<path d="M6341 7444 c0 -11 3 -14 6 -6 3 7 2 16 -1 19 -3 4 -6 -2 -5 -13z"/>
<path d="M6755 7420 c-3 -6 1 -7 9 -4 18 7 21 14 7 14 -6 0 -13 -4 -16 -10z"/>
<path d="M6465 7400 c-4 -6 -11 -7 -17 -4 -7 4 -8 2 -4 -5 6 -9 11 -9 22 0 14
11 18 19 10 19 -3 0 -8 -5 -11 -10z"/>
<path d="M6480 7365 c-7 -9 -8 -15 -2 -15 5 0 12 7 16 15 3 8 4 15 2 15 -2 0
-9 -7 -16 -15z"/>
<path d="M6341 7354 c0 -11 3 -14 6 -6 3 7 2 16 -1 19 -3 4 -6 -2 -5 -13z"/>
<path d="M6406 7362 c-3 -4 4 -9 15 -9 23 -2 25 3 4 10 -8 4 -16 3 -19 -1z"/>
<path d="M6510 7295 c0 -9 -4 -13 -10 -10 -5 3 -10 4 -10 1 0 -3 8 -10 18 -15
14 -7 18 -6 19 10 1 10 -2 21 -8 24 -5 4 -9 -1 -9 -10z"/>
<path d="M4513 7363 c9 -2 23 -2 30 0 6 3 -1 5 -18 5 -16 0 -22 -2 -12 -5z"/>
<path d="M4573 7363 c9 -2 23 -2 30 0 6 3 -1 5 -18 5 -16 0 -22 -2 -12 -5z"/>
<path d="M4488 7243 c12 -2 30 -2 40 0 9 3 -1 5 -23 4 -22 0 -30 -2 -17 -4z"/>
<path d="M4598 7243 c6 -2 18 -2 25 0 6 3 1 5 -13 5 -14 0 -19 -2 -12 -5z"/>
<path d="M5110 7096 c0 -2 8 -10 18 -17 15 -13 16 -12 3 4 -13 16 -21 21 -21
13z"/>
<path d="M5164 7025 c19 -29 20 -39 4 -29 -7 4 -8 3 -4 -5 4 -6 13 -8 19 -5 8
5 7 2 -1 -7 -16 -17 -41 -3 -59 32 -8 15 -13 18 -13 8 0 -8 10 -25 23 -36 29
-26 97 -64 97 -55 0 11 -70 122 -77 122 -3 0 2 -11 11 -25z"/>
<path d="M3977 7023 c-3 -5 -1 -17 4 -28 7 -17 8 -17 8 8 1 27 -4 34 -12 20z"/>
<path d="M3925 6940 c-9 -16 -13 -30 -11 -30 3 0 12 14 21 30 9 17 13 30 11
30 -3 0 -12 -13 -21 -30z"/>
<path d="M3992 6920 c-1 -19 -9 -48 -17 -64 -8 -15 -15 -37 -15 -47 0 -11 -5
-19 -11 -19 -6 0 -9 -7 -5 -15 3 -8 2 -14 -2 -14 -20 3 -32 -3 -32 -16 0 -8 6
-15 13 -15 8 0 9 -3 1 -8 -6 -4 -13 -13 -15 -21 -4 -11 -8 -10 -23 4 -9 10
-15 24 -12 32 4 8 1 11 -5 7 -8 -4 -9 4 -5 27 5 29 4 30 -4 11 -32 -76 -41
-318 -15 -416 19 -71 66 -162 109 -212 l32 -37 67 7 c37 4 67 10 67 13 0 2
-20 28 -45 56 -116 132 -158 322 -120 539 8 46 22 101 30 122 9 21 14 52 12
70 l-4 31 -1 -35z m-129 -221 c-9 -9 -12 -7 -10 9 1 14 5 18 11 12 7 -7 6 -14
-1 -21z m19 -16 c-6 -2 -10 -9 -7 -13 3 -5 1 -11 -5 -15 -5 -3 -10 0 -10 8 0
17 10 27 24 26 6 0 5 -3 -2 -6z m48 -34 c0 -6 -4 -7 -10 -4 -5 3 -10 11 -10
16 0 6 5 7 10 4 6 -3 10 -11 10 -16z"/>
<path d="M3886 6865 c-9 -26 -7 -32 5 -12 6 10 9 21 6 23 -2 3 -7 -2 -11 -11z"/>
<path d="M3874 6820 c2 -16 20 -14 24 2 3 10 2 10 -6 -1 -7 -9 -11 -10 -15 -2
-4 7 -5 8 -3 1z"/>
<path d="M4906 6937 c-16 -182 -92 -376 -201 -515 l-57 -73 28 -22 c15 -12 40
-30 56 -39 l27 -17 46 52 c62 71 137 221 174 347 35 121 54 249 39 268 -12 14
-32 17 -23 3 3 -5 0 -13 -6 -17 -9 -5 -10 0 -6 15 4 16 -3 27 -27 46 -18 14
-35 25 -38 25 -3 0 -8 -33 -12 -73z m38 32 c-10 -16 -24 -9 -24 12 0 18 2 19
15 9 8 -7 12 -16 9 -21z"/>
<path d="M4620 6943 c78 -3 110 -7 100 -13 -11 -7 -11 -10 -2 -10 7 0 10 -4 7
-10 -8 -13 -45 -13 -45 1 0 5 -4 8 -9 5 -5 -3 -7 -15 -4 -26 5 -18 2 -20 -21
-16 -14 2 -31 8 -36 11 -6 4 -22 4 -36 1 -23 -6 -23 -8 -9 -22 9 -9 13 -19 10
-22 -3 -4 -9 -2 -13 4 -8 12 -43 28 -57 25 -5 -1 -3 5 6 12 16 12 15 15 -8 35
-14 12 -34 22 -46 22 -44 -1 -195 -39 -276 -70 -92 -36 -94 -38 -116 -152
l-12 -66 32 21 c19 12 31 25 29 29 -2 3 1 10 7 14 8 4 9 3 5 -4 -10 -17 -6
-16 77 24 111 52 232 74 410 74 82 0 152 -2 157 -5 4 -3 11 14 15 37 3 24 8
55 11 69 5 25 2 27 -42 33 -26 3 -92 5 -148 4 l-101 -2 115 -3z m-129 -29 c10
-13 10 -20 0 -36 -12 -19 -11 -20 6 -16 12 3 20 0 20 -7 0 -7 -7 -12 -16 -12
-40 0 -47 -3 -32 -12 11 -7 4 -11 -25 -16 -21 -3 -57 -10 -79 -15 -23 -5 -42
-5 -45 0 -7 12 -80 3 -97 -12 -9 -7 -13 -7 -13 1 0 6 -13 11 -30 11 -21 0 -28
-4 -24 -14 3 -7 -2 -16 -11 -20 -9 -3 -13 -2 -10 4 6 9 -16 15 -38 11 -5 -1
-7 4 -5 11 3 7 11 13 19 14 33 2 39 5 39 15 0 5 -6 7 -12 4 -7 -4 -2 3 11 14
31 28 44 26 39 -4 -3 -14 -1 -25 3 -25 10 0 12 14 9 44 -1 10 3 15 8 12 6 -3
12 -1 14 4 2 6 20 12 40 13 20 1 34 5 32 9 -6 9 53 21 66 13 5 -3 10 -1 10 4
0 6 9 11 21 11 11 0 17 -4 14 -10 -9 -14 4 -12 19 3 18 18 52 18 67 1z m289 6
c0 -5 -7 -7 -15 -4 -8 4 -15 8 -15 10 0 2 7 4 15 4 8 0 15 -4 15 -10z m-66
-46 c5 -13 4 -14 -7 -6 -8 7 -18 8 -22 4 -5 -4 -5 -1 -1 6 10 17 23 15 30 -4z
m-80 -29 c-7 -16 -24 -21 -24 -6 0 8 7 13 27 20 1 1 0 -6 -3 -14z m-87 -21
c-3 -3 -12 -4 -19 -1 -8 3 -5 6 6 6 11 1 17 -2 13 -5z"/>
<path d="M4447 6903 c4 -10 2 -14 -5 -9 -6 3 -13 2 -17 -4 -9 -15 21 -12 34 4
9 10 8 15 -3 19 -11 4 -13 1 -9 -10z"/>
<path d="M4340 6896 c0 -3 9 -10 20 -16 11 -6 20 -8 20 -6 0 3 -9 10 -20 16
-11 6 -20 8 -20 6z"/>
<path d="M4460 6875 c-7 -8 -16 -12 -21 -9 -5 3 -9 -4 -9 -16 0 -12 -5 -18
-10 -15 -6 4 -8 11 -5 16 4 5 1 9 -4 9 -6 0 -11 -9 -11 -20 0 -15 7 -20 26
-20 19 0 25 4 20 15 -3 8 -2 14 2 14 20 -3 28 3 28 21 0 24 0 24 -16 5z"/>
<path d="M4341 6863 c-1 -17 16 -25 25 -12 4 7 3 9 -4 5 -5 -3 -13 0 -15 6 -4
9 -6 10 -6 1z"/>
<path d="M4376 6835 c-3 -8 -1 -15 4 -15 6 0 10 7 10 15 0 8 -2 15 -4 15 -2 0
-6 -7 -10 -15z"/>
<path d="M4270 6826 c0 -2 7 -7 16 -10 8 -3 12 -2 9 4 -6 10 -25 14 -25 6z"/>
<path d="M4340 6820 c0 -5 5 -10 10 -10 6 0 10 5 10 10 0 6 -4 10 -10 10 -5 0
-10 -4 -10 -10z"/>
<path d="M4620 6901 c0 -6 4 -13 10 -16 6 -3 7 1 4 9 -7 18 -14 21 -14 7z"/>
<path d="M1659 6713 c-13 -16 -12 -17 4 -4 16 13 21 21 13 21 -2 0 -10 -8 -17
-17z"/>
<path d="M1642 6665 c0 -16 2 -22 5 -12 2 9 2 23 0 30 -3 6 -5 -1 -5 -18z"/>
<path d="M2577 6634 c-3 -20 -14 -46 -24 -58 l-18 -21 22 19 c21 17 42 81 31
92 -3 2 -8 -12 -11 -32z"/>
<path d="M1656 6587 c3 -10 9 -15 12 -12 3 3 0 11 -7 18 -10 9 -11 8 -5 -6z"/>
<path d="M1728 6553 c6 -2 18 -2 25 0 6 3 1 5 -13 5 -14 0 -19 -2 -12 -5z"/>
<path d="M2508 6553 c7 -3 16 -2 19 1 4 3 -2 6 -13 5 -11 0 -14 -3 -6 -6z"/>
<path d="M4244 6637 l-41 -22 12 -35 c61 -172 232 -390 384 -488 51 -34 67
-39 86 -32 37 14 125 60 125 65 0 2 -28 18 -61 35 -34 17 -83 46 -109 65 -109
80 -252 261 -300 381 -25 61 -34 64 -96 31z"/>
<path d="M3627 6412 c-69 -138 -156 -387 -141 -402 15 -14 242 -80 334 -97
102 -18 282 -20 365 -4 81 17 180 49 240 79 80 39 80 39 23 84 l-51 41 -77
-32 c-112 -47 -191 -63 -310 -63 -149 0 -364 44 -376 76 -7 18 38 151 75 224
l29 58 -18 78 c-11 43 -21 80 -23 83 -3 2 -34 -54 -70 -125z"/>
<path d="M2329 3961 c6 -10 7 -22 3 -26 -4 -5 -1 -5 6 -1 6 4 12 3 12 -2 0
-16 -13 -22 -25 -12 -9 7 -14 7 -18 -2 -3 -9 7 -13 33 -13 l37 -1 -25 38 c-26
40 -40 51 -23 19z"/>
<path d="M2114 3928 c8 -13 14 -34 11 -46 -2 -12 0 -22 6 -22 5 0 9 3 10 8 0
4 2 16 3 27 1 12 -8 29 -22 39 l-24 19 16 -25z"/>
<path d="M2160 3932 c0 -5 12 -18 28 -27 15 -10 24 -14 20 -10 -4 5 -3 14 3
21 7 9 6 12 -8 9 -10 -1 -24 2 -30 8 -9 6 -13 6 -13 -1z"/>
<path d="M1805 3921 c-3 -5 -1 -12 5 -16 5 -3 10 1 10 9 0 18 -6 21 -15 7z"/>
<path d="M1995 3910 c-3 -5 -1 -10 4 -10 6 0 11 5 11 10 0 6 -2 10 -4 10 -3 0
-8 -4 -11 -10z"/>
<path d="M1828 3878 c17 -8 26 -8 34 0 9 9 4 12 -22 11 -33 0 -34 -1 -12 -11z"/>
<path d="M3063 4173 c9 -2 23 -2 30 0 6 3 -1 5 -18 5 -16 0 -22 -2 -12 -5z"/>
<path d="M3163 4173 c9 -2 23 -2 30 0 6 3 -1 5 -18 5 -16 0 -22 -2 -12 -5z"/>
<path d="M2969 4003 c-13 -16 -12 -17 4 -4 16 13 21 21 13 21 -2 0 -10 -8 -17
-17z"/>
<path d="M3141 3994 c0 -11 3 -14 6 -6 3 7 2 16 -1 19 -3 4 -6 -2 -5 -13z"/>
<path d="M3163 3985 c0 -8 4 -12 9 -9 5 3 6 10 3 15 -9 13 -12 11 -12 -6z"/>
<path d="M2873 3973 c0 -9 4 -10 14 -2 7 6 13 12 13 14 0 1 -6 2 -13 2 -8 0
-14 -6 -14 -14z"/>
<path d="M2875 3940 c-3 -5 -1 -10 4 -10 6 0 11 5 11 10 0 6 -2 10 -4 10 -3 0
-8 -4 -11 -10z"/>
<path d="M4459 4143 c-13 -16 -12 -17 4 -4 16 13 21 21 13 21 -2 0 -10 -8 -17
-17z"/>
<path d="M4640 4140 c0 -11 2 -20 4 -20 2 0 6 9 9 20 3 11 1 20 -4 20 -5 0 -9
-9 -9 -20z"/>
<path d="M4060 4085 c0 -8 4 -15 10 -15 5 0 7 7 4 15 -4 8 -8 15 -10 15 -2 0
-4 -7 -4 -15z"/>
<path d="M4303 4075 c0 -8 6 -16 14 -19 11 -4 11 -1 3 14 -13 24 -17 25 -17 5z"/>
<path d="M3930 4054 c0 -8 5 -12 10 -9 6 4 8 11 5 16 -9 14 -15 11 -15 -7z"/>
<path d="M3986 4058 c3 -5 10 -6 15 -3 13 9 11 12 -6 12 -8 0 -12 -4 -9 -9z"/>
<path d="M4340 4059 c0 -11 27 -12 34 -1 2 4 -4 9 -15 9 -10 1 -19 -2 -19 -8z"/>
<path d="M3960 4051 c0 -10 19 -25 25 -20 1 2 -3 10 -11 17 -8 7 -14 8 -14 3z"/>
<path d="M4150 4020 c0 -5 7 -10 16 -10 8 0 12 5 9 10 -3 6 -10 10 -16 10 -5
0 -9 -4 -9 -10z"/>
<path d="M3837 4006 c-4 -10 -5 -21 -2 -24 9 -9 17 6 13 25 -3 17 -4 17 -11
-1z"/>
</g>
</svg>
