<svg width="1920" height="1080" viewBox="0 0 1920 1080" xmlns="http://www.w3.org/2000/svg">
  <defs>
    <filter id="glow" x="-50%" y="-50%" width="200%" height="200%">
      <feGaussianBlur in="SourceGraphic" stdDeviation="4"/>
    </filter>
  </defs>
  <g fill="none" stroke="#0a84ff" stroke-width="2" opacity="0.3">
    <circle cx="300" cy="300" r="4"/>
    <circle cx="600" cy="400" r="4"/>
    <circle cx="900" cy="200" r="4"/>
    <circle cx="1200" cy="500" r="4"/>
    <circle cx="1500" cy="300" r="4"/>
    <circle cx="450" cy="600" r="4"/>
    <circle cx="750" cy="350" r="4"/>
    <circle cx="1050" cy="450" r="4"/>
    <circle cx="1350" cy="250" r="4"/>
    <line x1="300" y1="300" x2="600" y2="400"/>
    <line x1="600" y1="400" x2="900" y2="200"/>
    <line x1="900" y1="200" x2="1200" y2="500"/>
    <line x1="1200" y1="500" x2="1500" y2="300"/>
    <line x1="450" y1="600" x2="750" y2="350"/>
    <line x1="750" y1="350" x2="1050" y2="450"/>
    <line x1="1050" y1="450" x2="1350" y2="250"/>
    <line x1="600" y1="400" x2="450" y2="600"/>
    <line x1="900" y1="200" x2="750" y2="350"/>
    <line x1="1200" y1="500" x2="1050" y2="450"/>
  </g>
  <g fill="#0a84ff" opacity="0.1">
    <circle cx="300" cy="300" r="8" filter="url(#glow)"/>
    <circle cx="600" cy="400" r="8" filter="url(#glow)"/>
    <circle cx="900" cy="200" r="8" filter="url(#glow)"/>
    <circle cx="1200" cy="500" r="8" filter="url(#glow)"/>
    <circle cx="1500" cy="300" r="8" filter="url(#glow)"/>
  </g>
</svg>